<svg xmlns="http://www.w3.org/2000/svg" viewBox="0 0 172.66 200.53"><defs><style>.cls-1{fill:#fff;}.cls-2{fill:#2e90ff;}</style></defs><g id="图层_2" data-name="图层 2"><g id="图层_1-2" data-name="图层 1"><path class="cls-1" d="M2.6,197l1.73-1.66a5.54,5.54,0,0,0,4.58,2.8c3,0,4.4-1.53,4.4-5v-12H4.39v-2.31H16.07v14.54c0,4-1.79,7.22-7.09,7.22A7.4,7.4,0,0,1,2.6,197Z" transform="translate(-2.6)"/><path class="cls-1" d="M25.14,192.07V178.8h2.77v13.34c0,4.39,1.92,6,4.46,6s4.52-1.6,4.52-6V178.8h2.63v13.27c0,6.12-3,8.46-7.15,8.46S25.14,198.19,25.14,192.07Z" transform="translate(-2.6)"/><path class="cls-1" d="M47.33,197.38,49,195.49a9,9,0,0,0,6.24,2.64c2.93,0,4.62-1.4,4.62-3.35,0-2.28-1.66-2.93-3.8-3.84l-3.1-1.37c-2.11-.84-4.58-2.34-4.58-5.5s2.93-5.66,7-5.66a9.31,9.31,0,0,1,6.57,2.64l-1.43,1.75a7.52,7.52,0,0,0-5.24-2c-2.47,0-4.13,1.17-4.13,3.09s2,2.8,3.81,3.51l3,1.34c2.64,1,4.72,2.53,4.72,5.69,0,3.38-2.86,6.08-7.55,6.08A10.84,10.84,0,0,1,47.33,197.38Z" transform="translate(-2.6)"/><path class="cls-1" d="M76.12,181.11H69.06V178.8H85.91v2.31H78.85v19H76.12Z" transform="translate(-2.6)"/><path class="cls-1" d="M92.41,189.47c0-6.86,4-11.06,9.57-11.06a8,8,0,0,1,5.85,2.6l-1.56,1.73a5.71,5.71,0,0,0-4.29-1.92c-4.07,0-6.74,3.29-6.74,8.59s2.67,8.72,6.74,8.72a6.14,6.14,0,0,0,4.78-2.35l1.56,1.66a8.22,8.22,0,0,1-6.6,3.09C96.45,200.53,92.41,196.43,92.41,189.47Z" transform="translate(-2.6)"/><path class="cls-1" d="M114.44,189.38c0-6.9,3.38-11,8.19-11s8.2,4.07,8.2,11-3.38,11.15-8.2,11.15S114.44,196.37,114.44,189.38Zm13.56,0c0-5.37-2.15-8.56-5.37-8.56s-5.36,3.19-5.36,8.56,2.14,8.75,5.36,8.75S128,194.84,128,189.38Z" transform="translate(-2.6)"/><path class="cls-1" d="M138.28,178.8h5.27c6.41,0,9.89,3.81,9.89,10.58s-3.48,10.76-9.76,10.76h-5.4Zm5.07,19.1c4.85,0,7.26-3.12,7.26-8.52s-2.41-8.33-7.26-8.33H141V197.9Z" transform="translate(-2.6)"/><path class="cls-1" d="M161.73,178.8h13.21v2.31H164.47v6.67h8.84v2.31h-8.84v7.74h10.8v2.31H161.73Z" transform="translate(-2.6)"/><path class="cls-2" d="M136.58,110.87q-2.13,9.76-6.44,15.75Q122,138,106.41,138,89.49,138,81,127.18c-2.65-3.34-5.42-5.66-6.84-10-1.51.11-3.08.17-4.69.19A67.91,67.91,0,0,1,59,116.74c2.49,10.12,8,16.65,15,22.59q12.39,10.44,30.64,10.44,21.15,0,33.63-12.72a43.54,43.54,0,0,0,12.26-26.18Z" transform="translate(-2.6)"/><path class="cls-2" d="M126.26,59.5c5,3.3,7.75,9.53,9.31,15.9h14a38.21,38.21,0,0,0-11.85-23.14c-6.49-5.68-13.17-10.29-23.45-10.59V55.28A22.05,22.05,0,0,1,126.26,59.5Z" transform="translate(-2.6)"/><path class="cls-2" d="M72.61,95.44c0-.89-.06-1.79-.06-2.71,0-14.15,3.15-23.13,9.45-30,2.8-3,4.48-5.09,8-6.78V42.36c-8.57,2.31-14.21,7.11-20,13.7C61.93,65.4,57.84,75.85,57.84,90.44c0,1.08,0,2.14.06,3.19,2.9,1,7,1.74,13.1,1.82C71.55,95.46,72.08,95.46,72.61,95.44Z" transform="translate(-2.6)"/><path class="cls-1" d="M66.33,0V16.54h27V68.17c0,9.29-.91,16.86-2.74,20.86-3,6.52-9.31,9.92-19,9.78-15.2-.22-18.5-4-21.76-7.61s-4.88-9-4.88-16.2V65.59h-17V75c0,13.7,4.15,22.52,10.67,28.58,8,7.4,18.9,10.31,32.28,10.21,17.39-.12,29.19-5.62,35.4-16.86q5-9.24,5-25.93V.18Z" transform="translate(-2.6)"/></g></g></svg>