<svg xmlns="http://www.w3.org/2000/svg" viewBox="0 0 306.12 104.9"><defs><style>.cls-1{fill:#2e90ff;}</style></defs><g id="图层_2" data-name="图层 2"><g id="图层_1-2" data-name="图层 1"><path class="cls-1" d="M76.15,77.66a29.52,29.52,0,0,1-4.52,11q-5.7,8-16.61,8-11.87,0-17.83-7.57c-1.85-2.35-3.8-4-4.79-7-1.06.08-2.16.13-3.29.13a47.32,47.32,0,0,1-7.3-.47c1.75,7.09,5.61,11.66,10.53,15.82Q41,104.91,53.8,104.9q14.82,0,23.56-8.9a30.45,30.45,0,0,0,8.58-18.34Z"/><path class="cls-1" d="M68.92,41.68c3.47,2.31,5.43,6.67,6.52,11.13h9.8a26.85,26.85,0,0,0-8.3-16.21c-4.55-4-9.22-7.2-16.43-7.42v9.54A15.41,15.41,0,0,1,68.92,41.68Z"/><path class="cls-1" d="M31.34,66.85c0-.63,0-1.26,0-1.9,0-9.91,2.2-16.2,6.62-21,2-2.13,3.13-3.56,5.64-4.74V29.67c-6,1.62-10,5-14,9.6C23.86,45.81,21,53.13,21,63.35c0,.75,0,1.5,0,2.24a29.11,29.11,0,0,0,9.18,1.27C30.6,66.87,31,66.86,31.34,66.85Z"/><path d="M26.94,0V11.58H45.82V47.75c0,6.51-.64,11.81-1.92,14.61-2.09,4.57-6.52,7-13.3,6.85-10.65-.15-13-2.8-15.24-5.33s-3.43-6.32-3.43-11.34v-6.6H0v6.6c0,9.59,2.9,15.77,7.48,20,5.58,5.18,13.23,7.22,22.61,7.16,12.18-.09,20.44-3.94,24.79-11.82q3.51-6.47,3.51-18.16V.13Z"/><path d="M117.78,58.06l1.88-1.81a6.06,6.06,0,0,0,5,3c3.3,0,4.79-1.66,4.79-5.5V40.71h-9.72V38.2h12.74V54.05c0,4.33-1.95,7.88-7.74,7.88A8.07,8.07,0,0,1,117.78,58.06Z"/><path d="M142.37,52.7V38.23h3V52.78c0,4.79,2.09,6.52,4.86,6.52s4.93-1.73,4.93-6.52V38.23h2.87V52.7c0,6.67-3.26,9.23-7.8,9.23S142.37,59.37,142.37,52.7Z"/><path d="M166.57,58.49l1.77-2.06a9.79,9.79,0,0,0,6.81,2.87c3.2,0,5-1.52,5-3.65,0-2.48-1.81-3.19-4.15-4.19L172.67,50c-2.3-.92-5-2.55-5-6s3.19-6.18,7.63-6.18a10.15,10.15,0,0,1,7.16,2.88l-1.56,1.91a8.2,8.2,0,0,0-5.71-2.16c-2.7,0-4.5,1.28-4.5,3.37,0,2.24,2.16,3.05,4.15,3.83l3.26,1.46c2.87,1.13,5.14,2.76,5.14,6.2,0,3.69-3.12,6.64-8.23,6.64A11.84,11.84,0,0,1,166.57,58.49Z"/><path d="M198,40.75h-7.7V38.23h18.38v2.52H201V61.5h-3Z"/><path d="M215.75,49.87c0-7.49,4.36-12.07,10.43-12.07a8.71,8.71,0,0,1,6.38,2.84l-1.7,1.88a6.25,6.25,0,0,0-4.68-2.09c-4.44,0-7.34,3.58-7.34,9.37s2.9,9.5,7.34,9.5a6.69,6.69,0,0,0,5.21-2.55l1.71,1.81a9,9,0,0,1-7.21,3.37C220.15,61.93,215.75,57.46,215.75,49.87Z"/><path d="M239.77,49.76c0-7.52,3.69-12,8.94-12s8.94,4.44,8.94,12S254,61.93,248.71,61.93,239.77,57.39,239.77,49.76Zm14.79,0c0-5.85-2.34-9.33-5.85-9.33s-5.85,3.48-5.85,9.33,2.34,9.54,5.85,9.54S254.56,55.72,254.56,49.76Z"/><path d="M265.78,38.23h5.75c7,0,10.78,4.15,10.78,11.53S278.52,61.5,271.67,61.5h-5.89Zm5.53,20.83c5.29,0,7.92-3.41,7.92-9.3s-2.63-9.08-7.92-9.08h-2.55V59.06Z"/><path d="M291.36,38.23h14.41v2.52H294.34V48H304v2.52h-9.65V59h11.78V61.5H291.36Z"/></g></g></svg>