<svg id="图层_1" data-name="图层 1" xmlns="http://www.w3.org/2000/svg" viewBox="0 0 1183.79 200.53"><defs><style>.cls-1{fill:#2e90ff;}</style></defs><path d="M88.05,394.76l1.73-1.66a5.55,5.55,0,0,0,4.58,2.8c3,0,4.4-1.53,4.4-5v-12H89.84v-2.31h11.68v14.54c0,4-1.79,7.22-7.09,7.22A7.41,7.41,0,0,1,88.05,394.76Z" transform="translate(-88.05 -197.77)"/><path d="M110.6,389.85V376.57h2.76v13.34c0,4.39,1.92,6,4.46,6s4.52-1.6,4.52-6V376.57H125v13.28c0,6.11-3,8.45-7.16,8.45S110.6,396,110.6,389.85Z" transform="translate(-88.05 -197.77)"/><path d="M132.78,395.15l1.63-1.89a8.94,8.94,0,0,0,6.24,2.64c2.93,0,4.62-1.4,4.62-3.35,0-2.28-1.66-2.93-3.8-3.84l-3.09-1.37c-2.12-.84-4.59-2.34-4.59-5.5s2.93-5.66,7-5.66a9.31,9.31,0,0,1,6.57,2.64l-1.43,1.75a7.51,7.51,0,0,0-5.23-2c-2.48,0-4.14,1.17-4.14,3.09s2,2.8,3.81,3.51l3,1.34c2.64,1,4.72,2.54,4.72,5.69,0,3.38-2.86,6.08-7.55,6.08A10.84,10.84,0,0,1,132.78,395.15Z" transform="translate(-88.05 -197.77)"/><path d="M161.57,378.88h-7.06v-2.31h16.85v2.31H164.3v19h-2.73Z" transform="translate(-88.05 -197.77)"/><path d="M177.87,387.24c0-6.86,4-11.06,9.56-11.06a8,8,0,0,1,5.86,2.61l-1.57,1.72a5.71,5.71,0,0,0-4.29-1.92c-4.07,0-6.73,3.29-6.73,8.59s2.66,8.72,6.73,8.72a6.14,6.14,0,0,0,4.78-2.35l1.56,1.66a8.22,8.22,0,0,1-6.6,3.09C181.9,398.3,177.87,394.21,177.87,387.24Z" transform="translate(-88.05 -197.77)"/><path d="M199.89,387.15c0-6.9,3.38-11,8.19-11s8.2,4.07,8.2,11-3.38,11.15-8.2,11.15S199.89,394.14,199.89,387.15Zm13.56,0c0-5.37-2.14-8.56-5.37-8.56s-5.36,3.19-5.36,8.56,2.14,8.75,5.36,8.75S213.45,392.61,213.45,387.15Z" transform="translate(-88.05 -197.77)"/><path d="M223.73,376.57H229c6.41,0,9.89,3.81,9.89,10.58s-3.48,10.76-9.76,10.76h-5.4Zm5.08,19.1c4.84,0,7.25-3.12,7.25-8.52s-2.41-8.33-7.25-8.33h-2.35v16.85Z" transform="translate(-88.05 -197.77)"/><path d="M247.18,376.57h13.21v2.31H249.92v6.67h8.85v2.31h-8.85v7.74h10.8v2.31H247.18Z" transform="translate(-88.05 -197.77)"/><path class="cls-1" d="M222,308.64q-2.11,9.76-6.44,15.75-8.15,11.37-23.73,11.37-16.92,0-25.45-10.81c-2.64-3.34-5.42-5.66-6.84-9.95-1.51.11-3.07.18-4.69.19a68,68,0,0,1-10.42-.68c2.49,10.13,8,16.65,15,22.59q12.39,10.44,30.64,10.44,21.17,0,33.63-12.72A43.49,43.49,0,0,0,236,308.64Z" transform="translate(-88.05 -197.77)"/><path class="cls-1" d="M211.71,257.27c5,3.3,7.76,9.53,9.31,15.9h14A38.21,38.21,0,0,0,223.16,250c-6.49-5.68-13.17-10.29-23.45-10.59v13.61A22.07,22.07,0,0,1,211.71,257.27Z" transform="translate(-88.05 -197.77)"/><path class="cls-1" d="M158.06,293.21c0-.89-.06-1.79-.06-2.71,0-14.15,3.15-23.13,9.45-30,2.8-3,4.48-5.09,8.05-6.78V240.13c-8.57,2.31-14.21,7.11-19.95,13.7-8.17,9.34-12.26,19.79-12.26,34.38,0,1.08,0,2.14.06,3.2,2.91,1,7,1.73,13.1,1.81C157,293.23,157.53,293.23,158.06,293.21Z" transform="translate(-88.05 -197.77)"/><path d="M151.78,197.77v16.54h26.95v51.63c0,9.29-.91,16.86-2.74,20.86-3,6.52-9.31,9.92-19,9.78-15.2-.21-18.5-4-21.76-7.61s-4.88-9-4.88-16.19v-9.42h-17v9.42c0,13.69,4.15,22.51,10.67,28.57,8,7.4,18.9,10.31,32.28,10.21,17.39-.12,29.19-5.62,35.4-16.86q5-9.24,5-25.93V198Z" transform="translate(-88.05 -197.77)"/><path class="cls-1" d="M455.2,308.93a29.29,29.29,0,0,1-4.51,11q-5.7,8-16.62,8-11.85,0-17.83-7.57c-1.85-2.35-3.79-4-4.78-7-1.07.08-2.16.12-3.29.13a47.24,47.24,0,0,1-7.3-.47c1.74,7.09,5.6,11.65,10.53,15.82q8.67,7.31,21.46,7.31,14.82,0,23.56-8.91A30.5,30.5,0,0,0,465,308.93Z" transform="translate(-88.05 -197.77)"/><path class="cls-1" d="M448,273c3.47,2.31,5.43,6.67,6.52,11.13h9.79a26.69,26.69,0,0,0-8.3-16.2c-4.54-4-9.22-7.21-16.42-7.42V270A15.44,15.44,0,0,1,448,273Z" transform="translate(-88.05 -197.77)"/><path class="cls-1" d="M410.4,298.12c0-.62,0-1.25,0-1.9,0-9.9,2.21-16.2,6.62-21,2-2.13,3.14-3.57,5.64-4.75v-9.54c-6,1.62-9.95,5-14,9.6-5.73,6.54-8.59,13.86-8.59,24.08,0,.76,0,1.5,0,2.24a29.06,29.06,0,0,0,9.18,1.27C409.65,298.14,410,298.14,410.4,298.12Z" transform="translate(-88.05 -197.77)"/><path d="M406,231.27v11.59h18.88V279c0,6.51-.64,11.81-1.92,14.62-2.09,4.56-6.53,6.94-13.31,6.85-10.65-.16-13-2.8-15.24-5.34S391,288.84,391,283.81v-6.6H379.06v6.6c0,9.59,2.9,15.77,7.47,20,5.59,5.19,13.24,7.23,22.61,7.16,12.19-.09,20.45-3.94,24.79-11.81q3.52-6.48,3.52-18.16V231.4Z" transform="translate(-88.05 -197.77)"/><path class="cls-1" d="M910.16,344q-2.4,11.06-7.29,17.84-9.23,12.87-26.87,12.87-19.15,0-28.82-12.24c-3-3.79-6.14-6.41-7.74-11.27-1.72.13-3.49.2-5.32.21a76.75,76.75,0,0,1-11.8-.76c2.82,11.46,9.06,18.85,17,25.58Q853.38,388,874,388q24,0,38.09-14.4Q923.9,361.64,926,344Z" transform="translate(-88.05 -197.77)"/><path class="cls-1" d="M898.48,285.79c5.61,3.73,8.78,10.79,10.54,18h15.84c-.92-9.5-6.57-20.21-13.42-26.21-7.35-6.43-14.91-11.64-26.56-12V281A25,25,0,0,1,898.48,285.79Z" transform="translate(-88.05 -197.77)"/><path class="cls-1" d="M837.72,326.49c0-1-.07-2-.07-3.08,0-16,3.57-26.18,10.71-33.94,3.16-3.44,5.06-5.76,9.11-7.68V266.38c-9.7,2.61-16.09,8.05-22.59,15.51C825.63,292.46,821,304.3,821,320.82c0,1.23,0,2.43.06,3.62,3.29,1.17,7.91,2,14.84,2.06C836.52,326.51,837.13,326.5,837.72,326.49Z" transform="translate(-88.05 -197.77)"/><path d="M830.61,218.41v18.73h30.52v58.47c0,10.51-1,19.08-3.1,23.62-3.38,7.38-10.55,11.23-21.51,11.07-17.22-.24-20.95-4.52-24.64-8.62s-5.53-10.21-5.53-18.33V292.68H787.06v10.67c0,15.51,4.69,25.49,12.08,32.35,9,8.38,21.4,11.68,36.56,11.57,19.69-.14,33-6.37,40.08-19.1q5.67-10.46,5.68-29.36V218.62Z" transform="translate(-88.05 -197.77)"/><path d="M496.84,289.34l1.88-1.81a6.08,6.08,0,0,0,5,3.05c3.3,0,4.79-1.67,4.79-5.5V272h-9.72v-2.52h12.74v15.86c0,4.32-2,7.87-7.74,7.87A8.06,8.06,0,0,1,496.84,289.34Z" transform="translate(-88.05 -197.77)"/><path d="M521.43,284V269.5h3v14.55c0,4.79,2.1,6.53,4.86,6.53s4.93-1.74,4.93-6.53V269.5h2.88V284c0,6.67-3.27,9.22-7.81,9.22S521.43,290.65,521.43,284Z" transform="translate(-88.05 -197.77)"/><path d="M545.63,289.76l1.77-2.06a9.79,9.79,0,0,0,6.81,2.88c3.2,0,5-1.53,5-3.66,0-2.48-1.81-3.19-4.15-4.18l-3.37-1.49c-2.31-.93-5-2.56-5-6s3.19-6.17,7.62-6.17a10.16,10.16,0,0,1,7.17,2.87L560,273.87a8.18,8.18,0,0,0-5.71-2.17c-2.7,0-4.51,1.28-4.51,3.37,0,2.24,2.17,3.05,4.15,3.84l3.27,1.45c2.87,1.14,5.14,2.77,5.14,6.21,0,3.69-3.12,6.63-8.23,6.63A11.84,11.84,0,0,1,545.63,289.76Z" transform="translate(-88.05 -197.77)"/><path d="M577,272h-7.7V269.5h18.38V272H580v20.76h-3Z" transform="translate(-88.05 -197.77)"/><path d="M594.81,281.14c0-7.49,4.36-12.06,10.43-12.06a8.71,8.71,0,0,1,6.38,2.84l-1.7,1.88a6.24,6.24,0,0,0-4.68-2.1c-4.44,0-7.35,3.59-7.35,9.37s2.91,9.51,7.35,9.51a6.72,6.72,0,0,0,5.21-2.56l1.7,1.81a9,9,0,0,1-7.2,3.37C599.21,293.2,594.81,288.73,594.81,281.14Z" transform="translate(-88.05 -197.77)"/><path d="M618.83,281c0-7.52,3.69-11.95,8.94-11.95s8.94,4.43,8.94,11.95S633,293.2,627.77,293.2,618.83,288.66,618.83,281Zm14.79,0c0-5.85-2.34-9.33-5.85-9.33s-5.86,3.48-5.86,9.33,2.35,9.55,5.86,9.55S633.62,287,633.62,281Z" transform="translate(-88.05 -197.77)"/><path d="M644.84,269.5h5.74c7,0,10.79,4.15,10.79,11.53s-3.8,11.75-10.64,11.75h-5.89Zm5.53,20.83c5.29,0,7.91-3.41,7.91-9.3s-2.62-9.08-7.91-9.08h-2.55v18.38Z" transform="translate(-88.05 -197.77)"/><path d="M670.42,269.5h14.4V272H673.4v7.28h9.65v2.51H673.4v8.45h11.78v2.52H670.42Z" transform="translate(-88.05 -197.77)"/><path d="M1040.35,301.19l2.31-2.23a7.45,7.45,0,0,0,6.15,3.76c4,0,5.88-2.05,5.88-6.76v-16.1h-12v-3.09h15.66v19.49c0,5.32-2.4,9.68-9.51,9.68A9.91,9.91,0,0,1,1040.35,301.19Z" transform="translate(-88.05 -197.77)"/><path d="M1070.57,294.6V276.81h3.71v17.88c0,5.89,2.57,8,6,8s6.06-2.14,6.06-8V276.81h3.53V294.6c0,8.2-4,11.34-9.59,11.34S1070.57,302.8,1070.57,294.6Z" transform="translate(-88.05 -197.77)"/><path d="M1100.31,301.71l2.19-2.53a12,12,0,0,0,8.37,3.54c3.92,0,6.19-1.88,6.19-4.5,0-3.05-2.22-3.92-5.1-5.14l-4.14-1.83c-2.84-1.14-6.15-3.14-6.15-7.37s3.92-7.59,9.37-7.59a12.48,12.48,0,0,1,8.81,3.53l-1.92,2.35a10.06,10.06,0,0,0-7-2.66c-3.31,0-5.54,1.57-5.54,4.15,0,2.75,2.66,3.75,5.11,4.71l4,1.79c3.53,1.39,6.32,3.4,6.32,7.63,0,4.53-3.84,8.15-10.12,8.15A14.54,14.54,0,0,1,1100.31,301.71Z" transform="translate(-88.05 -197.77)"/><path d="M1138.91,279.91h-9.46v-3.1H1152v3.1h-9.47v25.51h-3.66Z" transform="translate(-88.05 -197.77)"/><path d="M1160.76,291.12c0-9.21,5.37-14.83,12.82-14.83a10.68,10.68,0,0,1,7.85,3.49l-2.09,2.31a7.68,7.68,0,0,0-5.76-2.58c-5.45,0-9,4.41-9,11.52s3.57,11.69,9,11.69a8.28,8.28,0,0,0,6.42-3.14l2.09,2.22a11.05,11.05,0,0,1-8.85,4.14C1166.17,305.94,1160.76,300.45,1160.76,291.12Z" transform="translate(-88.05 -197.77)"/><path d="M1190.29,291c0-9.24,4.54-14.69,11-14.69s11,5.45,11,14.69-4.54,15-11,15S1190.29,300.36,1190.29,291Zm18.18,0c0-7.19-2.87-11.47-7.19-11.47s-7.2,4.28-7.2,11.47,2.88,11.74,7.2,11.74S1208.47,298.31,1208.47,291Z" transform="translate(-88.05 -197.77)"/><path d="M1222.26,276.81h7.06c8.59,0,13.26,5.1,13.26,14.17s-4.67,14.44-13.08,14.44h-7.24Zm6.8,25.6c6.5,0,9.73-4.19,9.73-11.43s-3.23-11.16-9.73-11.16h-3.14v22.59Z" transform="translate(-88.05 -197.77)"/><path d="M1253.7,276.81h17.71v3.1h-14v8.94h11.86v3.09h-11.86v10.38h14.48v3.1H1253.7Z" transform="translate(-88.05 -197.77)"/></svg>