<?xml version="1.0" standalone="no"?>
<!DOCTYPE svg PUBLIC "-//W3C//DTD SVG 20010904//EN"
 "http://www.w3.org/TR/2001/REC-SVG-20010904/DTD/svg10.dtd">
<svg version="1.0" xmlns="http://www.w3.org/2000/svg"
 width="799.000000pt" height="799.000000pt" viewBox="0 0 799.000000 799.000000"
 preserveAspectRatio="xMidYMid meet">

<g transform="translate(0.000000,799.000000) scale(0.100000,-0.100000)"
fill="#000000" stroke="none">
<path d="M2690 7130 l0 -390 635 0 635 0 0 -1332 c0 -795 -4 -1389 -10 -1473
-19 -261 -55 -459 -107 -588 -103 -256 -321 -417 -637 -472 -195 -33 -612 -13
-824 40 -309 78 -550 306 -646 613 -47 150 -57 244 -63 580 l-6 312 -398 0
-399 0 0 -304 c0 -427 21 -604 100 -848 81 -246 200 -437 384 -616 265 -257
587 -404 1034 -473 174 -27 585 -37 782 -20 506 45 878 193 1150 457 259 252
391 549 463 1044 21 143 21 177 24 1996 l4 1851 -137 6 c-76 4 -553 7 -1061 7
l-923 0 0 -390z"/>
</g>
</svg>
