<svg xmlns="http://www.w3.org/2000/svg" viewBox="0 0 138.94 169.6"><defs><style>.cls-1{fill:#2e90ff;}.cls-2{fill:#fff;}</style></defs><g id="图层_2" data-name="图层 2"><g id="图层_1-2" data-name="图层 1"><path class="cls-1" d="M123.11,125.55q-2.42,11.05-7.3,17.84Q106.59,156.26,89,156.26q-19.17,0-28.83-12.24c-3-3.79-6.14-6.41-7.74-11.27-1.72.13-3.49.2-5.32.21a76.54,76.54,0,0,1-11.79-.76c2.81,11.46,9,18.85,17,25.58q14,11.82,34.7,11.82,24,0,38.08-14.4,11.79-12,13.88-29.65Z"/><path class="cls-1" d="M111.42,67.38c5.62,3.73,8.78,10.79,10.54,18H137.8c-.91-9.5-6.57-20.21-13.42-26.21-7.35-6.43-14.91-11.64-26.55-12V62.6A25,25,0,0,1,111.42,67.38Z"/><path class="cls-1" d="M50.66,108.08c0-1-.06-2-.06-3.08,0-16,3.56-26.18,10.7-33.94,3.17-3.44,5.07-5.76,9.12-7.68V48c-9.71,2.61-16.1,8.05-22.6,15.51-9.25,10.57-13.88,22.41-13.88,38.93,0,1.23,0,2.43.07,3.62,3.29,1.17,7.9,2,14.83,2.06C49.46,108.1,50.07,108.09,50.66,108.08Z"/><path class="cls-2" d="M43.56,0V18.73H74.08V77.2c0,10.51-1,19.08-3.11,23.62-3.38,7.38-10.55,11.23-21.5,11.07-17.22-.24-21-4.52-24.64-8.62s-5.54-10.21-5.54-18.33V74.27H0V84.94c0,15.51,4.7,25.49,12.09,32.35,9,8.38,21.39,11.68,36.55,11.57,19.69-.14,33.05-6.37,40.08-19.1Q94.41,99.31,94.4,80.4V.21Z"/></g></g></svg>