<svg xmlns="http://www.w3.org/2000/svg" viewBox="0 0 231.5 29.65"><g id="图层_2" data-name="图层 2"><g id="图层_1-2" data-name="图层 1"><path d="M3.49,32,5.8,29.75A7.45,7.45,0,0,0,12,33.5c4.05,0,5.89-2.05,5.89-6.76V10.65H5.89V7.55H21.54V27c0,5.32-2.4,9.68-9.5,9.68A9.92,9.92,0,0,1,3.49,32Z" transform="translate(-3.49 -7.07)"/><path d="M33.71,25.38V7.59h3.71V25.47c0,5.89,2.57,8,6,8s6.07-2.14,6.07-8V7.59H53V25.38c0,8.2-4,11.34-9.6,11.34S33.71,33.58,33.71,25.38Z" transform="translate(-3.49 -7.07)"/><path d="M63.46,32.49,65.64,30A12,12,0,0,0,74,33.5c3.93,0,6.19-1.88,6.19-4.5,0-3.05-2.22-3.92-5.1-5.14L71,22c-2.84-1.14-6.15-3.14-6.15-7.37s3.92-7.59,9.38-7.59A12.52,12.52,0,0,1,83,10.6L81.08,13a10.06,10.06,0,0,0-7-2.66c-3.31,0-5.53,1.57-5.53,4.14,0,2.75,2.66,3.75,5.1,4.71l4,1.79c3.53,1.39,6.32,3.4,6.32,7.63,0,4.53-3.83,8.15-10.11,8.15A14.5,14.5,0,0,1,63.46,32.49Z" transform="translate(-3.49 -7.07)"/><path d="M102.05,10.69H92.59V7.59h22.59v3.1h-9.46V36.2h-3.67Z" transform="translate(-3.49 -7.07)"/><path d="M123.91,21.9c0-9.21,5.36-14.83,12.82-14.83a10.73,10.73,0,0,1,7.85,3.49l-2.1,2.31a7.65,7.65,0,0,0-5.75-2.57c-5.45,0-9,4.4-9,11.51s3.58,11.69,9,11.69a8.28,8.28,0,0,0,6.41-3.14l2.09,2.22a11,11,0,0,1-8.85,4.14C129.31,36.72,123.91,31.23,123.91,21.9Z" transform="translate(-3.49 -7.07)"/><path d="M153.43,21.77c0-9.25,4.54-14.7,11-14.7s11,5.45,11,14.7-4.53,15-11,15S153.43,31.14,153.43,21.77Zm18.19,0c0-7.2-2.88-11.47-7.2-11.47s-7.19,4.27-7.19,11.47,2.88,11.73,7.19,11.73S171.62,29.09,171.62,21.77Z" transform="translate(-3.49 -7.07)"/><path d="M185.4,7.59h7.07c8.59,0,13.25,5.1,13.25,14.18S201.06,36.2,192.64,36.2H185.4Zm6.8,25.6c6.5,0,9.73-4.19,9.73-11.42S198.7,10.6,192.2,10.6h-3.14V33.19Z" transform="translate(-3.49 -7.07)"/><path d="M216.85,7.59h17.7v3.1h-14v8.94h11.86v3.09H220.51V33.1H235v3.1H216.85Z" transform="translate(-3.49 -7.07)"/></g></g></svg>